<?xml version="1.0" standalone="no"?>
<!DOCTYPE svg PUBLIC "-//W3C//DTD SVG 1.1//EN" "http://www.w3.org/Graphics/SVG/1.1/DTD/svg11.dtd" >
<svg xmlns="http://www.w3.org/2000/svg">
<metadata></metadata>
<defs>
<font id="clan_pronarrow_ultra" horiz-adv-x="1206" >
<font-face units-per-em="2048" ascent="1612" descent="-436" />
<missing-glyph horiz-adv-x="421" />
<glyph horiz-adv-x="0" />
<glyph horiz-adv-x="0" />
<glyph horiz-adv-x="682" />
<glyph unicode="&#xd;" horiz-adv-x="421" />
<glyph unicode=" "  horiz-adv-x="421" />
<glyph unicode="&#x09;" horiz-adv-x="421" />
<glyph unicode="&#xa0;" horiz-adv-x="421" />
<glyph unicode="!" horiz-adv-x="581" d="M49 1536h483l-65 -1059h-348zM68 174q0 203 231 203q233 0 233 -203q0 -93 -58 -146t-175 -53q-121 0 -176 47t-55 152z" />
<glyph unicode="&#x22;" horiz-adv-x="933" d="M57 1569h414l-70 -617h-284zM510 1569h414l-70 -617h-285z" />
<glyph unicode="#" d="M78 311v330h129l24 225h-153v322h186l37 348h348l-37 -348h97l34 348h344l-38 -348h86v-322h-115l-27 -225h142v-330h-172l-33 -311h-342l33 311h-99l-33 -311h-348l35 311h-98zM555 641h96l27 225h-96z" />
<glyph unicode="$" d="M100 1075q0 472 551 484l25 129l256 -19l-25 -131q79 -11 146 -39l-23 -375q-83 20 -196 33l-41 -211q56 -22 100 -46.5t91 -64t78 -87.5t51 -117.5t20 -153.5q0 -252 -125.5 -375t-399.5 -129l-24 -131l-234 19l23 129q-160 19 -264 76l55 389q124 -65 274 -101l39 226 q-61 25 -109 51t-100.5 69t-87.5 93t-57.5 123t-22.5 159zM498 1094q0 -39 59 -68l25 139q-84 -10 -84 -71zM676 334q100 13 100 84q0 42 -69 74z" />
<glyph unicode="%" horiz-adv-x="1495" d="M20 1194q0 183 81 268.5t253 85.5q167 0 251.5 -84.5t84.5 -269.5q0 -171 -88 -262.5t-250 -91.5q-332 0 -332 354zM180 299l862 1110l248 -197l-860 -1110zM313 1196q0 -53 9.5 -71.5t31.5 -18.5q25 0 34 17t9 73q0 52 -10 71t-33 19t-32 -18t-9 -72zM803 332 q0 182 81.5 270t252.5 88q338 0 338 -358q0 -171 -89 -263t-251 -92q-167 0 -249.5 91.5t-82.5 263.5zM1096 332q0 -51 9.5 -68.5t31.5 -17.5q25 0 35 16.5t10 69.5q0 48 -11 66t-34 18q-22 0 -31.5 -17.5t-9.5 -66.5z" />
<glyph unicode="&#x26;" horiz-adv-x="1443" d="M10 424q0 130 63.5 231t172.5 189q-117 185 -117 315q0 86 25 155.5t80 126t152 87.5t230 31q206 0 344 -94.5t138 -252.5q0 -64 -25 -123.5t-75.5 -114t-97.5 -93.5t-118 -90q58 -60 146 -132q40 76 69 187l379 -2q-18 -177 -137 -387q105 -55 197 -82l-164 -391 q-152 56 -303 153q-211 -166 -475 -166q-125 0 -221 38.5t-151.5 103.5t-83.5 144t-28 167zM471 467q0 -94 98 -94q52 0 88 10q-77 59 -168 154q-18 -35 -18 -70zM543 1163q0 -41 28 -102q84 64 84 115q0 30 -15 44.5t-34 14.5q-63 0 -63 -72z" />
<glyph unicode="'" horiz-adv-x="483" d="M35 1569h414l-70 -617h-285z" />
<glyph unicode="(" horiz-adv-x="765" d="M111 657q0 281 81 528.5t240 420.5l328 -27q-215 -353 -215 -922q0 -563 215 -919l-328 -27q-159 172 -240 420t-81 526z" />
<glyph unicode=")" horiz-adv-x="765" d="M4 -262q114 189 165.5 428t51.5 491q0 254 -51.5 494.5t-165.5 427.5l330 27q158 -173 238.5 -420.5t80.5 -528.5q0 -278 -81 -525.5t-238 -420.5z" />
<glyph unicode="*" horiz-adv-x="796" d="M8 1243l76 195l184 -41l35 192h201l33 -192l180 41l71 -193l-174 -94l95 -170l-150 -113l-153 140l-156 -140l-158 105l90 178z" />
<glyph unicode="+" horiz-adv-x="1169" d="M92 481v383h295v297h393v-297h295v-383h-295v-299h-393v299h-295z" />
<glyph unicode="," horiz-adv-x="546" d="M41 184q0 101 55.5 163.5t173.5 62.5t177 -63.5t59 -174.5q0 -98 -67 -234.5t-154 -232.5l-158 37l49 238q-54 30 -94.5 85t-40.5 119z" />
<glyph unicode="-" horiz-adv-x="710" d="M55 549v307h600v-307h-600z" />
<glyph unicode="." horiz-adv-x="559" d="M41 195q0 223 240 223q237 0 237 -223q0 -103 -58.5 -161.5t-178.5 -58.5q-126 0 -183 51.5t-57 168.5z" />
<glyph unicode="/" horiz-adv-x="925" d="M-49 -231l629 1822h381l-642 -1822h-368z" />
<glyph unicode="0" d="M49 756q0 293 57.5 466.5t177.5 250.5t320 77q196 0 315.5 -76.5t179.5 -251.5t60 -466q0 -403 -136 -591t-425 -188q-290 0 -419.5 186t-129.5 593zM506 762q0 -185 11 -272t29 -107.5t58 -20.5q37 0 55 23t28.5 110.5t10.5 266.5q0 135 -5 214t-18 117.5t-28 49 t-43 10.5q-39 0 -57.5 -23.5t-29.5 -109t-11 -258.5z" />
<glyph unicode="1" d="M170 1253l459 279h278v-1215h160v-317h-799v317h158v684l-207 -108z" />
<glyph unicode="2" d="M92 1401q212 151 514 151q256 0 389 -126.5t133 -340.5q0 -84 -29.5 -166.5t-92 -168.5t-134.5 -163t-180 -179l2 -7h420l-10 -401h-989v289q38 43 97.5 111t92.5 105.5t81 93.5t74.5 90t60.5 79.5t52 77.5t36 68t25 66.5t7 59.5q0 56 -31.5 82.5t-99.5 26.5 q-136 0 -311 -117z" />
<glyph unicode="3" d="M84 1403q92 69 218.5 109t258.5 40q260 0 404.5 -120.5t144.5 -331.5q0 -207 -170 -312v-4q197 -95 197 -319q0 -230 -151 -357.5t-454 -127.5q-120 0 -233 27.5t-197 74.5l78 352q170 -78 332 -78q164 0 164 119q0 31 -9.5 53t-37 44t-88 34t-152.5 12v320q92 0 149.5 8 t86 26t38 39.5t9.5 55.5q0 46 -33 71t-115 25q-183 0 -338 -116z" />
<glyph unicode="4" d="M16 543l506 993h559v-907h107l-8 -377h-99v-252h-434v252h-592zM481 629h181l12 260l12 166l-4 2z" />
<glyph unicode="5" d="M102 82l76 352q91 -40 166 -58t168 -18q98 0 130 32.5t32 107.5q0 67 -39.5 95t-126.5 28q-119 0 -227 -27l-152 172l55 770h865l18 -395h-502l-10 -160q49 6 109 6q228 0 353.5 -115.5t125.5 -336.5q0 -264 -142 -409.5t-438 -145.5q-267 0 -461 102z" />
<glyph unicode="6" d="M45 743q0 390 173 601.5t507 211.5q209 0 346 -55l-33 -383q-122 41 -260 41q-126 0 -186.5 -42.5t-81.5 -133.5l4 -4q85 45 195 45q220 0 338 -120t118 -351q0 -292 -141.5 -432.5t-394.5 -140.5q-144 0 -249.5 40.5t-182 129.5t-114.5 237t-38 356zM520 637 q1 -119 12 -179t31.5 -80t61.5 -20q40 0 61 46t21 157q0 62 -22 91.5t-73 29.5q-22 0 -53.5 -13.5t-38.5 -31.5z" />
<glyph unicode="7" d="M55 1106l21 426h1067v-369l-453 -1163h-520l518 1106h-633z" />
<glyph unicode="8" d="M47 473q0 89 39.5 177.5t114.5 150.5q-109 122 -109 329q0 201 129.5 313.5t384.5 112.5q262 0 387 -113.5t125 -314.5q0 -177 -121 -305q162 -120 162 -354q0 -243 -139.5 -367.5t-413.5 -124.5q-281 0 -420 127t-139 369zM496 467q0 -81 29 -110t93 -29q45 0 70 22 t25 82q0 59 -42 95t-126 73q-49 -69 -49 -133zM524 1108q0 -53 33.5 -86t97.5 -57q50 56 50 129q0 56 -23.5 80t-77.5 24q-40 0 -60 -20.5t-20 -69.5z" />
<glyph unicode="9" d="M43 1010q0 261 137.5 402.5t409.5 141.5q279 0 424 -179.5t145 -563.5q0 -432 -161.5 -631.5t-493.5 -199.5q-234 0 -391 71l61 367q144 -56 283 -56q117 0 170 49t67 154q-82 -33 -198 -33q-217 0 -335 127.5t-118 350.5zM492 1030q0 -83 20 -114t78 -31q44 0 71.5 18 t30.5 47q0 94 -13 144.5t-35 67t-62 16.5q-46 0 -68 -32.5t-22 -115.5z" />
<glyph unicode=":" horiz-adv-x="559" d="M41 195q0 223 240 223q237 0 237 -223q0 -103 -58.5 -161.5t-178.5 -58.5q-126 0 -183 51.5t-57 168.5zM41 948q0 223 240 223q237 0 237 -223q0 -103 -58.5 -161t-178.5 -58q-127 0 -183.5 51.5t-56.5 167.5z" />
<glyph unicode=";" horiz-adv-x="559" d="M41 948q0 223 240 223q237 0 237 -223q0 -103 -58.5 -161t-178.5 -58q-127 0 -183.5 51.5t-56.5 167.5zM53 184q0 101 56 163.5t174 62.5t176.5 -63.5t58.5 -174.5q0 -98 -67 -234.5t-154 -232.5l-158 37l49 238q-54 30 -94.5 85t-40.5 119z" />
<glyph unicode="&#x3c;" horiz-adv-x="1169" d="M154 553v217l858 477l2 -428l-197 -90l-151 -65v-7l149 -69l201 -101v-409z" />
<glyph unicode="=" horiz-adv-x="1169" d="M143 264v324h883v-324h-883zM143 709v321h883v-321h-883z" />
<glyph unicode="&#x3e;" horiz-adv-x="1169" d="M154 78v409l198 99l152 71v7l-152 65l-194 90v428l858 -477v-217z" />
<glyph unicode="?" horiz-adv-x="954" d="M2 1423q74 58 193.5 92.5t248.5 34.5q239 0 364.5 -108t125.5 -293q0 -297 -301 -477l-15 -195h-339l-25 350q227 118 227 244q0 37 -28.5 60.5t-81.5 23.5q-133 0 -217 -78zM213 174q0 203 231 203q232 0 232 -203q0 -93 -57.5 -146t-174.5 -53q-121 0 -176 47t-55 152z " />
<glyph unicode="@" horiz-adv-x="1804" d="M43 711q0 152 38.5 291t116 256.5t186.5 203.5t258.5 134.5t324.5 48.5q239 0 421 -104t278.5 -285.5t96.5 -411.5q0 -140 -28 -254t-73.5 -188.5t-107.5 -125t-127.5 -72.5t-134.5 -22q-191 0 -276 125q-112 -125 -299 -125q-135 0 -223 109.5t-88 304.5 q0 173 62.5 321.5t174 238t246.5 89.5q113 0 178 -71l35 61l227 -14l-82 -568q-8 -50 -8 -86q0 -108 84 -108t137 91.5t53 293.5q0 124 -34 226.5t-101 179t-173.5 119t-243.5 42.5q-167 0 -296.5 -52t-209.5 -146.5t-121 -220.5t-41 -279q0 -162 40.5 -292t122 -226 t211.5 -147.5t302 -51.5q108 0 209 20.5t177 53.5t123.5 60t86.5 56l96 -206q-110 -90 -296.5 -153t-399.5 -63q-210 0 -379.5 60.5t-290.5 177.5t-186.5 297t-65.5 412zM760 600q0 -115 61 -115q38 0 66 46t37 126l32 269q-11 26 -41 26q-47 0 -83 -53t-54 -132.5 t-18 -166.5z" />
<glyph unicode="A" horiz-adv-x="1435" d="M-18 0l436 1536h588l446 -1536h-532l-46 233h-344l-45 -233h-503zM608 621h193l-64 325l-26 166h-6l-31 -164z" />
<glyph unicode="B" horiz-adv-x="1323" d="M76 0v1536h639q256 0 392 -109t136 -294q0 -224 -186 -316v-4q231 -84 231 -356q0 -214 -145.5 -335.5t-440.5 -121.5h-626zM539 381h172q57 0 74.5 21t17.5 90q0 63 -18.5 85.5t-79.5 22.5h-166v-219zM539 948h159q51 0 67.5 20.5t16.5 82.5q0 57 -17 76.5t-67 19.5 h-159v-199z" />
<glyph unicode="C" horiz-adv-x="1105" d="M43 774q0 789 702 789q81 0 171.5 -15t154.5 -39l-43 -395q-119 35 -246 35q-62 0 -102.5 -11.5t-67.5 -35t-41 -71t-19 -106.5t-5 -153q0 -98 6 -161t20.5 -111.5t43 -73.5t70 -37t104.5 -12q135 0 241 47l43 -381q-73 -32 -170.5 -51t-185.5 -19q-341 0 -508.5 196 t-167.5 605z" />
<glyph unicode="D" horiz-adv-x="1376" d="M76 0v1536h577q362 0 521 -177.5t159 -580.5q0 -279 -76.5 -452t-221.5 -249.5t-371 -76.5h-588zM555 408h102q46 0 72 6.5t48 26t32 62t15 107.5t5 170q0 154 -14.5 225t-48.5 95t-109 24h-102v-716z" />
<glyph unicode="E" horiz-adv-x="1153" d="M76 0v1536h1007l9 -410h-537v-159h434v-371h-434v-193h561l-8 -403h-1032z" />
<glyph unicode="F" horiz-adv-x="1105" d="M76 0v1536h1005l6 -418h-532v-196h440l-4 -396h-436v-526h-479z" />
<glyph unicode="G" horiz-adv-x="1271" d="M43 770q0 400 176.5 596.5t558.5 196.5q234 0 414 -66l-43 -397q-157 55 -340 55q-60 0 -100.5 -6.5t-70.5 -25.5t-47.5 -44t-27.5 -71.5t-13 -98.5t-3 -133q0 -170 16.5 -251t56 -110.5t123.5 -29.5q27 0 39 2v457h428v-789q-83 -38 -208 -61t-244 -23 q-197 0 -335.5 51.5t-221.5 156t-120.5 249t-37.5 342.5z" />
<glyph unicode="H" horiz-adv-x="1378" d="M76 0v1536h479v-553h268v553h480v-1536h-480v569h-268v-569h-479z" />
<glyph unicode="I" horiz-adv-x="671" d="M90 0v1536h492v-1536h-492z" />
<glyph unicode="J" horiz-adv-x="1032" d="M45 16l23 390q62 -27 172 -27q120 0 173.5 49t53.5 172v936h489v-946q0 -142 -29.5 -249t-81.5 -177t-132 -113.5t-173.5 -61.5t-213.5 -18q-160 0 -281 45z" />
<glyph unicode="K" horiz-adv-x="1398" d="M76 0v1536h477v-573h68l235 573h535l-332 -735l346 -801h-559l-234 594h-57v-594h-479z" />
<glyph unicode="L" horiz-adv-x="1056" d="M76 0v1536h483v-1122h477l-10 -414h-950z" />
<glyph unicode="M" horiz-adv-x="1765" d="M76 0v1536h522l227 -659l52 -158h6l49 158l231 659h527v-1536h-439v506l4 166l-6 2l-51 -160l-172 -514h-307l-172 516l-49 160l-4 -2l2 -166v-508h-420z" />
<glyph unicode="N" horiz-adv-x="1388" d="M76 0v1536h395l420 -668l4 2l-4 164l2 502h422v-1536h-340l-387 586l-88 141l-4 -2l2 -166v-559h-422z" />
<glyph unicode="O" horiz-adv-x="1429" d="M43 768q0 416 161 604.5t511 188.5t510.5 -188.5t160.5 -604.5q0 -427 -159 -611t-512 -184q-344 0 -508 191t-164 604zM547 768q0 -164 15.5 -244.5t50 -109.5t104.5 -29t103.5 29.5t48 109.5t14.5 244q0 165 -15 243.5t-49 106t-106 27.5q-69 0 -102.5 -28t-48.5 -107 t-15 -242z" />
<glyph unicode="P" horiz-adv-x="1290" d="M76 0v1536h555q337 0 485 -135t148 -426q0 -264 -149 -399.5t-484 -135.5h-76v-440h-479zM553 809h78q43 0 66 5t41 22t24 49.5t6 89.5q0 109 -26 141.5t-113 32.5h-76v-340z" />
<glyph unicode="Q" horiz-adv-x="1429" d="M43 768q0 416 161 604.5t511 188.5t510.5 -188.5t160.5 -604.5q0 -300 -77 -477t-240 -254l231 -199l-497 -139l-137 276q-319 12 -471 203t-152 590zM547 768q0 -164 15.5 -244.5t50 -109.5t104.5 -29t103.5 29.5t48 109.5t14.5 244q0 165 -15 243.5t-49 106t-106 27.5 q-69 0 -102.5 -28t-48.5 -107t-15 -242z" />
<glyph unicode="R" horiz-adv-x="1331" d="M76 0v1536h559q317 0 473 -123t156 -389q0 -145 -49 -253.5t-138 -160.5l277 -610h-551l-170 512h-78v-512h-479zM555 860h88q73 0 97 26t24 120q0 90 -24 117.5t-97 27.5h-88v-291z" />
<glyph unicode="S" horiz-adv-x="1112" d="M43 1059q0 107 34 196.5t102.5 158.5t180.5 108t258 39q241 0 420 -72l-51 -389q-190 51 -338 51q-90 0 -117.5 -16.5t-27.5 -53.5q0 -30 32 -54.5t83.5 -45.5t113.5 -45t124.5 -61.5t114 -87t83.5 -129.5t32 -181q0 -233 -155 -368.5t-424 -135.5q-264 0 -461 105 l59 393q214 -98 390 -98q74 0 103.5 18.5t29.5 57.5q0 29 -32.5 52.5t-84 44t-114 45t-125 63t-114 89t-84 132t-32.5 184.5z" />
<glyph unicode="T" horiz-adv-x="1165" d="M14 1118l9 418h1118l10 -418h-326v-1118h-487v1118h-324z" />
<glyph unicode="U" horiz-adv-x="1353" d="M63 524v1012h482v-1004q0 -76 29.5 -108.5t105.5 -32.5t103.5 31t27.5 110v1004h479v-1012q0 -269 -152 -410t-458 -141q-308 0 -462.5 140.5t-154.5 410.5z" />
<glyph unicode="V" horiz-adv-x="1380" d="M-23 1536h527l198 -1014h7l28 162l172 852h494l-440 -1536h-547z" />
<glyph unicode="W" horiz-adv-x="2019" d="M-4 1536h498l102 -870l16 -164h6l21 164l127 870h506l127 -864l22 -164h6l17 164l104 864h477l-317 -1536h-571l-107 803l-16 166h-6l-19 -166l-104 -803h-572z" />
<glyph unicode="X" horiz-adv-x="1378" d="M-4 0l348 795l-346 741h557l86 -236l53 -155h6l54 155l88 236h538l-354 -731l356 -805h-534l-100 287l-52 157h-6l-51 -159l-98 -285h-545z" />
<glyph unicode="Y" horiz-adv-x="1374" d="M-23 1536h533l143 -465l45 -158h7l40 160l134 463h518l-459 -1087v-449h-489v449z" />
<glyph unicode="Z" horiz-adv-x="1167" d="M35 0v303l434 678l90 133l-2 4h-512l10 418h1065v-334l-415 -651l-91 -131l2 -6h508l-4 -414h-1085z" />
<glyph unicode="[" horiz-adv-x="743" d="M111 -279v1872h626v-297h-221v-1282h221v-293h-626z" />
<glyph unicode="\" horiz-adv-x="710" d="M-78 1591h357l548 -1822h-354z" />
<glyph unicode="]" horiz-adv-x="741" d="M4 14h221v1282h-221v297h627v-1872h-627v293z" />
<glyph unicode="^" d="M63 956l396 693h295l387 -693h-344l-113 201l-76 148h-6l-78 -148l-110 -201h-351z" />
<glyph unicode="_" horiz-adv-x="780" d="M0 -61h780v-250h-780v250z" />
<glyph unicode="`" horiz-adv-x="813" d="M98 1630h494l96 -299h-330z" />
<glyph unicode="a" horiz-adv-x="1132" d="M35 410q0 179 117 292t307 113q82 0 170 -18v18q0 109 -170 109q-93 0 -157.5 -13.5t-156.5 -46.5l-34 340q188 78 434 78q148 0 248.5 -31.5t161.5 -98.5t87.5 -163t26.5 -235v-754h-340l-29 90q-113 -110 -288 -110q-177 0 -277 110t-100 320zM453 414q0 -97 79 -97 q41 0 69 21.5t28 62.5v111q-42 10 -84 10q-47 0 -69.5 -25.5t-22.5 -82.5z" />
<glyph unicode="b" horiz-adv-x="1222" d="M76 0v1579l444 20v-221l-4 -164l6 -4q100 72 230 72q209 0 323.5 -156.5t114.5 -486.5q0 -337 -130.5 -499.5t-363.5 -162.5q-164 0 -278 105l-43 -82h-299zM520 385q37 -63 101 -63q42 0 63.5 20t33 87.5t11.5 201.5q0 129 -11.5 190t-32 77.5t-64.5 16.5 q-68 0 -101 -61v-469z" />
<glyph unicode="c" horiz-adv-x="929" d="M33 616q0 664 585 664q70 0 147 -11.5t126 -31.5l-23 -358q-82 20 -149 20q-132 0 -178.5 -59.5t-46.5 -225.5q0 -137 57 -206.5t158 -69.5q78 0 165 24l29 -329q-107 -58 -291 -58q-282 0 -430.5 162.5t-148.5 478.5z" />
<glyph unicode="d" horiz-adv-x="1222" d="M33 641q0 311 115 478t323 167q128 0 231 -80l5 4l-5 164v205l445 20v-1599h-346l-35 86q-112 -109 -283 -109q-219 0 -334.5 163.5t-115.5 500.5zM494 625q0 -131 9.5 -192t32.5 -84t72 -23q32 0 57 16t37 43v477q-32 45 -94 45q-45 0 -68.5 -22.5t-34.5 -83t-11 -176.5 z" />
<glyph unicode="e" horiz-adv-x="1144" d="M33 633q0 649 561 649q518 0 518 -584q0 -114 -12 -206h-606q13 -78 69.5 -112t169.5 -34q160 0 305 43l47 -342q-174 -67 -407 -67q-325 0 -485 166.5t-160 486.5zM487 776h215q-3 87 -26 120.5t-78 33.5q-60 0 -82 -29t-29 -125z" />
<glyph unicode="f" horiz-adv-x="776" d="M14 946v316h115v55q0 135 110 228t316 93q109 0 211 -26l-23 -281q-48 10 -88 10q-46 0 -63 -9.5t-17 -28.5v-41h187v-316h-187v-946h-444v946h-117z" />
<glyph unicode="g" horiz-adv-x="1163" d="M39 348q0 158 149 240q-131 101 -131 295q0 86 28 157t86 126.5t156 86.5t228 31q184 0 301 -57l209 57l96 -203l-119 -102q11 -57 11 -96q0 -191 -122.5 -292.5t-371.5 -101.5q-21 0 -98 5q-8 -11 -8 -25q0 -30 51 -33l262 -12q200 -10 296.5 -93t96.5 -243 q0 -201 -148 -312.5t-442 -111.5q-259 0 -388.5 88.5t-129.5 233.5q0 101 76 174q-88 74 -88 188zM426 45q0 -35 30.5 -49t102.5 -14q119 0 160 10.5t41 36.5q0 20 -15.5 27.5t-58.5 9.5l-250 16q-10 -20 -10 -37zM496 874q0 -54 12.5 -75t42.5 -21q44 0 59 18t15 78 q0 53 -13.5 73t-50.5 20t-51 -19.5t-14 -73.5z" />
<glyph unicode="h" horiz-adv-x="1226" d="M76 0v1579l444 20v-219l-4 -163l6 -5q105 74 248 74q181 0 287 -131t106 -360v-795h-446v795q0 63 -22 89.5t-72 26.5q-67 0 -103 -45v-866h-444z" />
<glyph unicode="i" horiz-adv-x="630" d="M80 1487q0 168 235 168q121 0 177.5 -41.5t56.5 -126.5q0 -83 -56.5 -124.5t-177.5 -41.5q-122 0 -178.5 39t-56.5 127zM88 0v1251l455 19v-1270h-455z" />
<glyph unicode="j" horiz-adv-x="632" d="M-61 -307l20 291q40 -7 61 -7q82 0 82 78v1198l445 17v-1223q0 -105 -32.5 -182t-91 -119.5t-129.5 -62t-159 -19.5q-104 0 -196 29zM82 1487q0 168 235 168q121 0 177.5 -41.5t56.5 -126.5q0 -83 -56.5 -124.5t-177.5 -41.5q-122 0 -178.5 39t-56.5 127z" />
<glyph unicode="k" horiz-adv-x="1243" d="M76 0v1579l444 20v-757h98l144 420h471l-234 -572l238 -690h-481l-140 498h-96v-498h-444z" />
<glyph unicode="l" horiz-adv-x="600" d="M76 0v1579l448 20v-1599h-448z" />
<glyph unicode="m" horiz-adv-x="1843" d="M70 0v1253l321 19l62 -98q133 114 292 114q201 0 302 -145q123 143 323 143q187 0 298.5 -126t111.5 -359v-801h-445v795q0 116 -94 116q-50 0 -72 -27.5t-22 -88.5v-795h-445v795q0 62 -22 89t-74 27q-59 0 -92 -45v-866h-444z" />
<glyph unicode="n" horiz-adv-x="1220" d="M70 0v1255l321 17l55 -88q129 102 304 102q187 0 297 -129t110 -362v-795h-444v795q0 62 -23.5 89t-71.5 27q-66 0 -104 -45v-866h-444z" />
<glyph unicode="o" horiz-adv-x="1216" d="M33 625q0 351 138.5 506t436.5 155q302 0 438 -154.5t136 -506.5t-136 -503t-438 -151q-301 0 -438 151.5t-137 502.5zM494 625q0 -134 12 -201t35 -88t69 -21t68.5 22t33.5 88.5t11 199.5q0 136 -11 202t-34 87.5t-70 21.5q-46 0 -68.5 -21t-34 -87.5t-11.5 -202.5z" />
<glyph unicode="p" horiz-adv-x="1216" d="M70 -313v1566l307 19l76 -88q125 98 282 98q112 0 193 -33.5t139.5 -108t87.5 -201t29 -306.5q0 -310 -122 -479.5t-331 -169.5q-136 0 -215 61l-6 -2l4 -166v-190h-444zM514 397q37 -63 94 -63q41 0 63.5 20.5t37 89.5t14.5 199q0 114 -9 168.5t-31.5 76t-70.5 21.5 q-30 0 -57 -16t-41 -41v-455z" />
<glyph unicode="q" horiz-adv-x="1218" d="M33 627q0 316 117.5 485.5t359.5 169.5q196 0 307 -108l45 90l287 -2v-1577h-444v342q-88 -45 -213 -45q-208 0 -333.5 162.5t-125.5 482.5zM494 625q0 -165 24 -226t94 -61q61 0 93 43v487q-35 35 -99 35q-31 0 -48.5 -5.5t-32 -19.5t-20 -47.5t-8.5 -80t-3 -125.5z" />
<glyph unicode="r" horiz-adv-x="907" d="M70 0v1253l356 15l33 -150h6q103 166 283 166q87 0 139 -18l-25 -424q-82 20 -141 20q-98 0 -151.5 -56t-53.5 -163v-643h-446z" />
<glyph unicode="s" horiz-adv-x="956" d="M37 862q0 89 29.5 163.5t88 132.5t154.5 91t221 33q184 0 347 -65l-31 -347q-68 25 -159.5 39.5t-156.5 14.5q-71 0 -71 -43q0 -24 26 -41.5t67 -30.5t90.5 -29t99.5 -43.5t91 -65.5t67 -103.5t26 -151.5q0 -209 -120.5 -325t-377.5 -116q-218 0 -371 68l39 352 q68 -33 159.5 -50t164.5 -17q96 0 96 51q0 24 -26.5 41.5t-68.5 30.5t-93.5 29t-102.5 44t-93 68t-68.5 109.5t-26.5 160.5z" />
<glyph unicode="t" horiz-adv-x="792" d="M14 944v318h117l72 258l350 30v-288h223v-318h-223v-536q0 -47 23 -68t77 -21q55 0 84 13l21 -314q-34 -16 -101 -27t-141 -11q-203 0 -305 110.5t-102 304.5v549h-95z" />
<glyph unicode="u" horiz-adv-x="1212" d="M63 463v799h445v-797q0 -58 23 -84.5t77 -26.5t76.5 25.5t22.5 85.5v797h442v-799q0 -246 -134 -364.5t-409 -118.5q-543 0 -543 483z" />
<glyph unicode="v" horiz-adv-x="1273" d="M-6 1262h479l129 -650l31 -161h6l29 161l133 650h479l-383 -1262h-526z" />
<glyph unicode="w" horiz-adv-x="1753" d="M10 1262h445l77 -650l17 -163h6l16 163l80 650h463l88 -650l21 -163h6l12 165l70 648h432l-238 -1262h-542l-56 545l-12 168h-6l-15 -168l-57 -545h-543z" />
<glyph unicode="x" horiz-adv-x="1241" d="M-2 0l313 635l-307 627h508l119 -375h6l45 157l70 218h485l-291 -619l295 -643h-502l-82 240l-49 159h-6l-121 -399h-483z" />
<glyph unicode="y" horiz-adv-x="1280" d="M-6 1262h502l190 -721h6l25 164l102 557h469l-370 -1209q-121 -397 -510 -397q-133 0 -226 37l33 293q61 -21 111 -21q60 0 97.5 17.5t55.5 62.5l4 12z" />
<glyph unicode="z" horiz-adv-x="1009" d="M35 0v303l325 467l97 131l-2 4h-410l14 357h895v-297l-331 -478l-97 -129l2 -6h451l-10 -352h-934z" />
<glyph unicode="{" horiz-adv-x="800" d="M111 586v153q41 23 68.5 61.5t27.5 90.5q0 39 -11.5 147t-11.5 150q0 79 17 142t58 116t105 88.5t161.5 55.5t224.5 20h45v-314h-68q-66 0 -105.5 -48.5t-39.5 -112.5q0 -35 7 -115t7 -129q0 -148 -111 -229q111 -78 111 -228q0 -50 -7 -130t-7 -114q0 -64 39.5 -112.5 t105.5 -48.5h68v-314h-45q-127 0 -224.5 20t-161.5 55.5t-105 88.5t-58 116t-17 142q0 43 11.5 150t11.5 147q0 52 -27.5 90.5t-68.5 61.5z" />
<glyph unicode="|" horiz-adv-x="598" d="M129 -362v2013h342v-2013h-342z" />
<glyph unicode="}" horiz-adv-x="800" d="M4 29h70q64 0 103.5 48.5t39.5 112.5q0 34 -7 114t-7 130q0 151 110 228q-110 80 -110 229q0 49 7 129t7 115q0 64 -39.5 112.5t-103.5 48.5h-70v314h47q158 0 269.5 -29.5t175 -87t92 -132t28.5 -173.5q0 -42 -11 -149.5t-11 -147.5q0 -100 94 -152v-153 q-94 -52 -94 -152q0 -39 11 -146.5t11 -150.5q0 -99 -28.5 -173.5t-92 -132t-175 -87t-269.5 -29.5h-47v314z" />
<glyph unicode="~" d="M82 1167q3 461 321 461q55 0 115 -18.5t103 -40t92.5 -40t85.5 -18.5q33 0 57.5 27.5t24.5 56.5l243 2q0 -225 -81.5 -342.5t-237.5 -117.5q-70 0 -144.5 29t-137.5 58t-105 29q-37 0 -63.5 -26.5t-28.5 -59.5h-244z" />
<glyph unicode="&#xa1;" horiz-adv-x="577" d="M51 1147q0 93 57.5 146t174.5 53q121 0 176 -47t55 -152q0 -203 -231 -203q-232 0 -232 203zM59 -266l54 1134h352l53 -1134h-459z" />
<glyph unicode="&#xa2;" d="M131 616q0 560 416 648l18 219h332l-20 -217q71 -13 112 -29l-22 -358q-82 20 -150 20q-132 0 -178.5 -59.5t-46.5 -225.5q0 -137 57 -206.5t158 -69.5q79 0 166 24l28 -329q-74 -41 -194 -53l-14 -207h-334l18 237q-346 120 -346 606z" />
<glyph unicode="&#xa3;" d="M88 915h90q-45 106 -45 195q0 94 33.5 173.5t103 145t191 103t282.5 37.5q175 0 334 -51l-49 -388q-122 35 -225 35q-193 0 -193 -127q0 -55 21 -123h413v-329h-333q-3 -125 -103 -193l4 -6q116 31 258 31q128 0 260 -21l-18 -413q-213 28 -453 28q-287 0 -540 -24 l-27 403q73 4 126.5 59.5t53.5 122.5v13h-166z" />
<glyph unicode="&#xa4;" d="M82 459l135 137q-22 68 -22 137q0 94 32 162l-143 145l227 228l152 -154q67 25 137 25q72 0 139 -25l154 154l227 -228l-145 -145q35 -75 35 -162q0 -62 -25 -139l133 -135l-227 -226l-127 125q-78 -32 -164 -32q-82 0 -164 32l-127 -127zM473 737q0 -53 36.5 -90 t90.5 -37t91.5 37t37.5 90q0 54 -37.5 91.5t-91.5 37.5t-90.5 -37.5t-36.5 -91.5z" />
<glyph unicode="&#xa5;" d="M-2 1536h518l64 -485l20 -164h6l19 164l65 485h512l-260 -770h160v-254h-242v-57h242v-254h-242v-201h-508v201h-225v254h225v57h-225v254h139z" />
<glyph unicode="&#xa6;" horiz-adv-x="598" d="M129 -313v856h342v-856h-342zM129 778v873h342v-873h-342z" />
<glyph unicode="&#xa7;" horiz-adv-x="1097" d="M41 637q0 90 37.5 170.5t107.5 138.5q-110 105 -110 240q0 192 132.5 292.5t381.5 100.5q99 0 209.5 -18t183.5 -50l-29 -319q-182 53 -333 53q-89 0 -89 -45q0 -23 29 -44t75.5 -41t103 -44t112.5 -60.5t102.5 -82t75.5 -115.5t29 -156q0 -89 -38 -169t-108 -138 q113 -108 113 -239q0 -194 -132.5 -295t-381.5 -101q-101 0 -211.5 18.5t-181.5 51.5l26 319q179 -55 336 -55q86 0 86 45q0 23 -29 44.5t-75.5 41.5t-102.5 44t-112 60t-102.5 81.5t-75.5 115.5t-29 156zM469 680q0 -35 33.5 -65.5t99.5 -67.5q31 31 31 67q0 35 -34 67 t-99 69q-31 -28 -31 -70z" />
<glyph unicode="&#xa8;" horiz-adv-x="813" d="M25 1487q0 168 178 168q176 0 176 -168q0 -166 -176 -166q-92 0 -135 39t-43 127zM436 1487q0 168 176 168q179 0 179 -168q0 -166 -179 -166q-91 0 -133.5 39t-42.5 127z" />
<glyph unicode="&#xa9;" horiz-adv-x="1693" d="M45 774q0 162 64 310.5t171.5 255.5t256 171t311.5 64t311.5 -64t255.5 -171.5t170.5 -255.5t63.5 -310q0 -163 -63.5 -311.5t-171 -256t-255.5 -171.5t-311 -64q-217 0 -402 108t-293 293t-108 402zM268 770q0 -118 45.5 -226t122.5 -187t185 -126t227 -47 q158 0 291.5 79.5t210.5 214.5t77 292q0 154 -77 286.5t-210.5 211t-291.5 78.5q-159 0 -293 -78.5t-210.5 -211t-76.5 -286.5zM328 766q0 139 63 257t185 191.5t278 73.5q210 0 354 -123l-30 -305q-96 49 -211 49q-92 0 -137.5 -38t-45.5 -103q0 -73 46 -107t147 -34 q49 0 107.5 14t89.5 29l40 -293q-61 -55 -162 -95t-204 -40q-148 0 -268 71t-186 190.5t-66 262.5z" />
<glyph unicode="&#xaa;" horiz-adv-x="915" d="M23 952q0 150 95 246t247 96q73 0 129 -16v16q0 76 -142 76q-68 0 -118.5 -10.5t-120.5 -38.5l-25 297q167 65 344 65q240 0 338 -105t98 -343v-633h-290l-27 70q-81 -84 -219 -84q-145 0 -227 92t-82 272zM377 954q0 -73 55 -73q26 0 44 15t18 46v90q-18 6 -54 6 q-32 0 -47.5 -19t-15.5 -65z" />
<glyph unicode="&#xab;" horiz-adv-x="1333" d="M29 623v24l671 473v-319l-251 -166l251 -166v-319zM604 623v24l672 473v-319l-252 -166l252 -166v-319z" />
<glyph unicode="&#xac;" d="M143 502v352h922v-631h-356v279h-566z" />
<glyph unicode="&#xad;" horiz-adv-x="710" d="M55 549v307h600v-307h-600z" />
<glyph unicode="&#xae;" horiz-adv-x="854" d="M20 1292q0 169 120 288.5t290 119.5q167 0 286.5 -119.5t119.5 -288.5q0 -167 -119.5 -286t-286.5 -119q-170 0 -290 119t-120 286zM135 1292q0 -120 86.5 -205.5t206.5 -85.5t206.5 85.5t86.5 205.5t-86.5 206.5t-206.5 86.5t-206.5 -86.5t-86.5 -206.5zM236 1096v409 h198q101 0 150 -39.5t49 -107.5q0 -75 -53 -111l53 -151h-182l-31 125h-6v-125h-178zM414 1321h22q13 0 20 7.5t7 17.5q0 23 -27 26h-22v-51z" />
<glyph unicode="&#xaf;" horiz-adv-x="813" d="M55 1356v254h707v-254h-707z" />
<glyph unicode="&#xb0;" horiz-adv-x="673" d="M27 1368q0 129 90 219t219 90q132 0 221.5 -89.5t89.5 -219.5q0 -132 -89.5 -221.5t-221.5 -89.5q-130 0 -219.5 89.5t-89.5 221.5zM217 1368q0 -54 33.5 -87.5t87.5 -33.5t86.5 33.5t32.5 87.5t-32.5 86.5t-86.5 32.5t-87.5 -32.5t-33.5 -86.5z" />
<glyph unicode="&#xb1;" d="M129 637v356h277v264h391v-264h278v-356h-278v-260h-391v260h-277zM131 8v311h942v-311h-942z" />
<glyph unicode="&#xb2;" horiz-adv-x="763" d="M43 1718q145 82 334 82q167 0 251.5 -72.5t84.5 -191.5q0 -61 -34 -115.5t-83 -94.5t-137 -97v-6h243l-4 -240h-632v182q48 43 112 98t95.5 82.5t64.5 60.5t46 56.5t13 46.5q0 47 -78 47q-50 0 -95 -15.5t-111 -49.5z" />
<glyph unicode="&#xb3;" horiz-adv-x="763" d="M47 1718q135 82 311 82q166 0 258.5 -67t92.5 -181q0 -102 -101 -157v-4q117 -52 117 -166q0 -254 -379 -254q-172 0 -289 65l60 213q118 -51 225 -51q90 0 90 39q0 15 -8.5 24.5t-50.5 19t-119 9.5v193q76 0 116.5 7t50 16t9.5 26q0 35 -88 35q-127 0 -229 -64z" />
<glyph unicode="&#xb4;" horiz-adv-x="813" d="M254 1331l86 299h494l-254 -299h-326z" />
<glyph unicode="&#xb5;" horiz-adv-x="1218" d="M70 -332v1594h444v-801q0 -45 26.5 -73t71.5 -28q101 0 101 101v801h442v-1252l-309 -22l-47 63q-70 -67 -170 -67q-113 0 -172 84l-4 -2q20 -249 36 -369z" />
<glyph unicode="&#xb6;" horiz-adv-x="1433" d="M-2 1241q0 131 94 213t252 82h1049l-17 -332h-135v-1532h-385v1532h-145v-1532h-383v1246q-147 6 -238.5 88.5t-91.5 234.5z" />
<glyph unicode="&#xb7;" horiz-adv-x="600" d="M59 705q0 223 240 223q238 0 238 -223q0 -103 -59 -161.5t-179 -58.5q-126 0 -183 51.5t-57 168.5z" />
<glyph unicode="&#xb8;" horiz-adv-x="813" d="M168 -375l162 422l286 2l-63 -424h-385z" />
<glyph unicode="&#xb9;" horiz-adv-x="583" d="M39 1630l280 160h189v-807h-303v485l-139 -67z" />
<glyph unicode="&#xba;" horiz-adv-x="1005" d="M41 1137q0 296 111 423.5t350 127.5q243 0 353 -127t110 -424t-109.5 -421t-353.5 -124q-160 0 -259.5 52t-150.5 172.5t-51 320.5zM430 1137q0 -111 7.5 -164t22 -68.5t44.5 -15.5t44.5 16t22 69t7.5 163q0 111 -8 164t-22.5 68t-45.5 15q-30 0 -44 -15t-21 -67.5 t-7 -164.5z" />
<glyph unicode="&#xbb;" horiz-adv-x="1333" d="M59 150v319l252 166l-252 166v319l674 -473v-24zM633 150v319l252 166l-252 166v319l674 -473v-24z" />
<glyph unicode="&#xbc;" horiz-adv-x="1763" d="M131 1376l281 160h188v-807h-303v485l-139 -67zM281 0l962 1536h307l-964 -1536h-305zM1012 291l331 516h359v-457h63l-6 -229h-57v-121h-279v121h-387zM1329 356l6 -10l99 4l14 185l-12 2z" />
<glyph unicode="&#xbd;" horiz-adv-x="1763" d="M135 1376l281 160h188v-807h-303v485l-139 -67zM225 0l963 1536h307l-965 -1536h-305zM1051 735q139 82 333 82q168 0 252 -72t84 -192q0 -87 -61.5 -154.5t-192.5 -152.5v-6h244l-4 -240h-633v182q49 44 112.5 98.5t95.5 82t65 60.5t46 56.5t13 46.5q0 47 -78 47 q-87 0 -207 -65z" />
<glyph unicode="&#xbe;" horiz-adv-x="1763" d="M70 1464q133 84 311 84q166 0 258 -67t92 -181q0 -105 -100 -159v-4q117 -52 117 -164q0 -254 -379 -254q-177 0 -289 65l59 213q116 -53 226 -53q90 0 90 41q0 8 -2.5 14.5t-13 14t-28.5 12.5t-52.5 8.5t-82.5 3.5v193q77 0 117 6t50 15t10 26q0 35 -88 35 q-126 0 -230 -62zM252 0l962 1536h308l-965 -1536h-305zM883 291l331 516h359v-457h63l-6 -229h-57v-121h-279v121h-387zM1200 356l6 -10l99 4l14 185l-12 2z" />
<glyph unicode="&#xbf;" horiz-adv-x="929" d="M14 199q0 296 299 477l17 194h340l24 -350q-107 -56 -167 -114.5t-60 -129.5q0 -37 28.5 -60t82.5 -23q134 0 217 77l151 -344q-75 -58 -194.5 -93.5t-247.5 -35.5q-238 0 -364 109t-126 293zM272 1174q0 93 57.5 145.5t174.5 52.5q121 0 176 -46.5t55 -151.5 q0 -203 -231 -203q-232 0 -232 203z" />
<glyph unicode="&#xc0;" horiz-adv-x="1435" d="M-18 0l436 1536h588l446 -1536h-532l-46 233h-344l-45 -233h-503zM281 1858h514l116 -244h-356zM608 621h193l-64 325l-26 166h-6l-31 -164z" />
<glyph unicode="&#xc1;" horiz-adv-x="1435" d="M-18 0l436 1536h588l446 -1536h-532l-46 233h-344l-45 -233h-503zM516 1610l90 245h549l-289 -245h-350zM608 621h193l-64 325l-26 166h-6l-31 -164z" />
<glyph unicode="&#xc2;" horiz-adv-x="1435" d="M-18 0l436 1536h588l446 -1536h-532l-46 233h-344l-45 -233h-503zM285 1610l184 245h469l192 -245h-378l-45 96h-5l-45 -96h-372zM608 621h193l-64 325l-26 166h-6l-31 -164z" />
<glyph unicode="&#xc3;" horiz-adv-x="1435" d="M-18 0l436 1536h588l446 -1536h-532l-46 233h-344l-45 -233h-503zM322 1614q2 121 68 194.5t177 73.5q87 0 185.5 -22.5t115.5 -22.5q23 0 31 5.5t10 19.5h195q-1 -123 -69.5 -195t-178.5 -72q-85 0 -175.5 22.5t-107.5 22.5q-18 0 -31.5 -7.5t-15.5 -18.5h-204zM608 621 h193l-64 325l-26 166h-6l-31 -164z" />
<glyph unicode="&#xc4;" horiz-adv-x="1435" d="M-18 0l436 1536h588l446 -1536h-532l-46 233h-344l-45 -233h-503zM332 1753q0 156 174 156t174 -156q0 -154 -174 -154q-89 0 -131.5 36t-42.5 118zM608 621h193l-64 325l-26 166h-6l-31 -164zM735 1753q0 156 174 156q176 0 176 -156q0 -154 -176 -154q-89 0 -131.5 36 t-42.5 118z" />
<glyph unicode="&#xc5;" horiz-adv-x="1435" d="M-18 0l424 1491q-37 48 -37 147q0 57 15 98t51.5 73t102 48.5t160.5 16.5q181 0 259.5 -61.5t78.5 -174.5q0 -72 -24 -122l440 -1516h-532l-46 233h-344l-45 -233h-503zM598 1624q0 -34 20 -46.5t91 -12.5q63 0 83.5 12t20.5 47q0 34 -20.5 50t-83.5 16q-69 0 -90 -14.5 t-21 -51.5zM608 621h193l-64 325l-26 166h-6l-31 -164z" />
<glyph unicode="&#xc6;" horiz-adv-x="2009" d="M-18 0l696 1536h1261l9 -408h-518l2 -161h413v-371h-409l2 -193h536l-8 -403h-1005l-3 238h-337l-84 -238h-555zM754 618h200l-2 392l2 166l-6 2l-53 -158z" />
<glyph unicode="&#xc7;" horiz-adv-x="1105" d="M43 774q0 789 702 789q81 0 171.5 -15t154.5 -39l-43 -395q-119 35 -246 35q-62 0 -102.5 -11.5t-67.5 -35t-41 -71t-19 -106.5t-5 -153q0 -98 6 -161t20.5 -111.5t43 -73.5t70 -37t104.5 -12q135 0 241 47l43 -381q-92 -42 -225 -59l-53 -359h-385l139 363 q-256 43 -382 236.5t-126 549.5z" />
<glyph unicode="&#xc8;" horiz-adv-x="1153" d="M76 0v1536h1007l9 -410h-537v-159h434v-371h-434v-193h561l-8 -403h-1032zM166 1858h514l117 -244h-357z" />
<glyph unicode="&#xc9;" horiz-adv-x="1153" d="M76 0v1536h1007l9 -410h-537v-159h434v-371h-434v-193h561l-8 -403h-1032zM401 1610l91 245h548l-288 -245h-351z" />
<glyph unicode="&#xca;" horiz-adv-x="1153" d="M76 0v1536h1007l9 -410h-537v-159h434v-371h-434v-193h561l-8 -403h-1032zM170 1610l184 245h469l193 -245h-379l-45 96h-4l-45 -96h-373z" />
<glyph unicode="&#xcb;" horiz-adv-x="1153" d="M76 0v1536h1007l9 -410h-537v-159h434v-371h-434v-193h561l-8 -403h-1032zM217 1753q0 156 174 156t174 -156q0 -154 -174 -154q-89 0 -131.5 36t-42.5 118zM621 1753q0 156 174 156q176 0 176 -156q0 -154 -176 -154q-89 0 -131.5 36t-42.5 118z" />
<glyph unicode="&#xcc;" horiz-adv-x="671" d="M-94 1858h514l117 -244h-357zM90 0v1536h492v-1536h-492z" />
<glyph unicode="&#xcd;" horiz-adv-x="671" d="M90 0v1536h492v-1536h-492zM143 1610l90 245h549l-288 -245h-351z" />
<glyph unicode="&#xce;" horiz-adv-x="671" d="M-88 1610l184 245h469l193 -245h-379l-45 96h-4l-45 -96h-373zM90 0v1536h492v-1536h-492z" />
<glyph unicode="&#xcf;" horiz-adv-x="671" d="M-41 1753q0 156 174 156t174 -156q0 -154 -174 -154q-89 0 -131.5 36t-42.5 118zM90 0v1536h492v-1536h-492zM362 1753q0 76 44 116t131 40q176 0 176 -156q0 -154 -176 -154q-90 0 -132.5 36t-42.5 118z" />
<glyph unicode="&#xd0;" horiz-adv-x="1402" d="M18 657v271h84v608h578q362 0 521 -177.5t159 -580.5q0 -210 -42 -359t-128 -241.5t-208.5 -135t-291.5 -42.5h-588v657h-84zM582 408h102q46 0 72 6.5t48 26t32 62t15 107.5t5 170q0 154 -14.5 225t-48.5 95t-109 24h-102v-196h108v-271h-108v-249z" />
<glyph unicode="&#xd1;" horiz-adv-x="1388" d="M76 0v1536h395l420 -668l4 2l-4 164l2 502h422v-1536h-340l-387 586l-88 141l-4 -2l2 -166v-559h-422zM309 1614q2 121 68 194.5t178 73.5q87 0 185.5 -22.5t115.5 -22.5q23 0 31 5.5t10 19.5h195q-1 -123 -69.5 -195t-178.5 -72q-85 0 -175.5 22.5t-107.5 22.5 q-18 0 -31.5 -7.5t-15.5 -18.5h-205z" />
<glyph unicode="&#xd2;" horiz-adv-x="1429" d="M43 768q0 416 161 604.5t511 188.5t510.5 -188.5t160.5 -604.5q0 -427 -159 -611t-512 -184q-344 0 -508 191t-164 604zM305 1858h514l117 -244h-356zM547 768q0 -164 15.5 -244.5t50 -109.5t104.5 -29t103.5 29.5t48 109.5t14.5 244q0 165 -15 243.5t-49 106t-106 27.5 q-69 0 -102.5 -28t-48.5 -107t-15 -242z" />
<glyph unicode="&#xd3;" horiz-adv-x="1429" d="M43 768q0 416 161 604.5t511 188.5t510.5 -188.5t160.5 -604.5q0 -427 -159 -611t-512 -184q-344 0 -508 191t-164 604zM524 1610l90 245h549l-289 -245h-350zM547 768q0 -164 15.5 -244.5t50 -109.5t104.5 -29t103.5 29.5t48 109.5t14.5 244q0 165 -15 243.5t-49 106 t-106 27.5q-69 0 -102.5 -28t-48.5 -107t-15 -242z" />
<glyph unicode="&#xd4;" horiz-adv-x="1429" d="M43 768q0 416 161 604.5t511 188.5t510.5 -188.5t160.5 -604.5q0 -427 -159 -611t-512 -184q-344 0 -508 191t-164 604zM293 1610l184 245h469l193 -245h-379l-45 96h-4l-45 -96h-373zM547 768q0 -164 15.5 -244.5t50 -109.5t104.5 -29t103.5 29.5t48 109.5t14.5 244 q0 165 -15 243.5t-49 106t-106 27.5q-69 0 -102.5 -28t-48.5 -107t-15 -242z" />
<glyph unicode="&#xd5;" horiz-adv-x="1429" d="M43 768q0 416 161 604.5t511 188.5t510.5 -188.5t160.5 -604.5q0 -427 -159 -611t-512 -184q-344 0 -508 191t-164 604zM332 1620q2 121 68 194.5t178 73.5q87 0 185.5 -22.5t115.5 -22.5q23 0 31 5.5t10 19.5h194q-1 -123 -69.5 -194.5t-178.5 -71.5q-85 0 -175 22.5 t-107 22.5q-18 0 -31.5 -8t-15.5 -19h-205zM547 768q0 -164 15.5 -244.5t50 -109.5t104.5 -29t103.5 29.5t48 109.5t14.5 244q0 165 -15 243.5t-49 106t-106 27.5q-69 0 -102.5 -28t-48.5 -107t-15 -242z" />
<glyph unicode="&#xd6;" horiz-adv-x="1429" d="M43 768q0 416 161 604.5t511 188.5t510.5 -188.5t160.5 -604.5q0 -427 -159 -611t-512 -184q-344 0 -508 191t-164 604zM340 1753q0 156 174 156t174 -156q0 -154 -174 -154q-89 0 -131.5 36t-42.5 118zM547 768q0 -164 15.5 -244.5t50 -109.5t104.5 -29t103.5 29.5 t48 109.5t14.5 244q0 165 -15 243.5t-49 106t-106 27.5q-69 0 -102.5 -28t-48.5 -107t-15 -242zM743 1753q0 76 44 116t131 40q176 0 176 -156q0 -154 -176 -154q-90 0 -132.5 36t-42.5 118z" />
<glyph unicode="&#xd7;" horiz-adv-x="1169" d="M96 883l256 260l234 -234l233 234l256 -256l-235 -234l227 -225l-256 -258l-227 225l-224 -227l-256 258l224 227z" />
<glyph unicode="&#xd8;" horiz-adv-x="1429" d="M18 141l111 144q-86 186 -86 483q0 416 161 604.5t511 188.5q243 0 395 -91l76 97l223 -187l-104 -135q81 -178 81 -477q0 -427 -159 -611t-512 -184q-241 0 -389 90l-80 -100zM547 737l293 357q-19 29 -49 40t-78 11q-69 0 -102.5 -28t-48.5 -107t-15 -242v-31zM590 436 q19 -29 49 -40t78 -11q70 0 104 29.5t49 109.5t15 244v25z" />
<glyph unicode="&#xd9;" horiz-adv-x="1353" d="M63 524v1012h482v-1004q0 -76 29.5 -108.5t105.5 -32.5t103.5 31t27.5 110v1004h479v-1012q0 -269 -152 -410t-458 -141q-308 0 -462.5 140.5t-154.5 410.5zM252 1858h514l117 -244h-357z" />
<glyph unicode="&#xda;" horiz-adv-x="1353" d="M63 524v1012h482v-1004q0 -76 29.5 -108.5t105.5 -32.5t103.5 31t27.5 110v1004h479v-1012q0 -269 -152 -410t-458 -141q-308 0 -462.5 140.5t-154.5 410.5zM487 1610l91 245h548l-288 -245h-351z" />
<glyph unicode="&#xdb;" horiz-adv-x="1353" d="M63 524v1012h482v-1004q0 -76 29.5 -108.5t105.5 -32.5t103.5 31t27.5 110v1004h479v-1012q0 -269 -152 -410t-458 -141q-308 0 -462.5 140.5t-154.5 410.5zM256 1610l184 245h469l193 -245h-379l-45 96h-4l-45 -96h-373z" />
<glyph unicode="&#xdc;" horiz-adv-x="1353" d="M63 524v1012h482v-1004q0 -76 29.5 -108.5t105.5 -32.5t103.5 31t27.5 110v1004h479v-1012q0 -269 -152 -410t-458 -141q-308 0 -462.5 140.5t-154.5 410.5zM303 1753q0 156 174 156t174 -156q0 -154 -174 -154q-89 0 -131.5 36t-42.5 118zM707 1753q0 156 174 156 q176 0 176 -156q0 -154 -176 -154q-89 0 -131.5 36t-42.5 118z" />
<glyph unicode="&#xdd;" horiz-adv-x="1374" d="M-23 1536h533l143 -465l45 -158h7l40 160l134 463h518l-459 -1087v-449h-489v449zM504 1610l90 245h549l-289 -245h-350z" />
<glyph unicode="&#xde;" horiz-adv-x="1296" d="M76 0v1536h479v-215h76q337 0 485 -134.5t148 -426.5q0 -264 -149 -399.5t-484 -135.5h-76v-225h-479zM553 594h78q43 0 66 5t41 22.5t24 50t6 90.5q0 108 -26 140t-113 32h-76v-340z" />
<glyph unicode="&#xdf;" horiz-adv-x="1312" d="M76 0v983q0 578 549 578q223 0 360 -112.5t137 -283.5q0 -60 -22.5 -113.5t-45 -92t-22.5 -60.5q0 -14 19 -33.5t47 -41t61 -56.5t61 -75.5t47 -103t19 -134.5q0 -218 -136 -346.5t-353 -128.5q-151 0 -234 49l19 362q45 -29 133 -29q55 0 87 15t32 61q0 32 -20.5 64 t-51 57.5t-66 57.5t-66 62.5t-51 73t-20.5 89.5q0 46 21 96t45.5 84.5t45.5 71t21 59.5q0 57 -78 57q-56 0 -75 -37t-19 -153v-1020h-444z" />
<glyph unicode="&#xe0;" horiz-adv-x="1132" d="M35 410q0 179 117 292t307 113q82 0 170 -18v18q0 109 -170 109q-93 0 -157.5 -13.5t-156.5 -46.5l-34 340q188 78 434 78q148 0 248.5 -31.5t161.5 -98.5t87.5 -163t26.5 -235v-754h-340l-29 90q-113 -110 -288 -110q-177 0 -277 110t-100 320zM174 1630h494l96 -299 h-330zM453 414q0 -97 79 -97q41 0 69 21.5t28 62.5v111q-42 10 -84 10q-47 0 -69.5 -25.5t-22.5 -82.5z" />
<glyph unicode="&#xe1;" horiz-adv-x="1132" d="M35 410q0 179 117 292t307 113q82 0 170 -18v18q0 109 -170 109q-93 0 -157.5 -13.5t-156.5 -46.5l-34 340q188 78 434 78q148 0 248.5 -31.5t161.5 -98.5t87.5 -163t26.5 -235v-754h-340l-29 90q-113 -110 -288 -110q-177 0 -277 110t-100 320zM360 1331l86 299h494 l-254 -299h-326zM453 414q0 -97 79 -97q41 0 69 21.5t28 62.5v111q-42 10 -84 10q-47 0 -69.5 -25.5t-22.5 -82.5z" />
<glyph unicode="&#xe2;" horiz-adv-x="1132" d="M35 410q0 179 117 292t307 113q82 0 170 -18v18q0 109 -170 109q-93 0 -157.5 -13.5t-156.5 -46.5l-34 340q188 78 434 78q148 0 248.5 -31.5t161.5 -98.5t87.5 -163t26.5 -235v-754h-340l-29 90q-113 -110 -288 -110q-177 0 -277 110t-100 320zM188 1331l185 299h372 l189 -299h-320l-47 111h-12l-47 -111h-320zM453 414q0 -97 79 -97q41 0 69 21.5t28 62.5v111q-42 10 -84 10q-47 0 -69.5 -25.5t-22.5 -82.5z" />
<glyph unicode="&#xe3;" horiz-adv-x="1132" d="M35 410q0 179 117 292t307 113q82 0 170 -18v18q0 109 -170 109q-93 0 -157.5 -13.5t-156.5 -46.5l-34 340q188 78 434 78q148 0 248.5 -31.5t161.5 -98.5t87.5 -163t26.5 -235v-754h-340l-29 90q-113 -110 -288 -110q-177 0 -277 110t-100 320zM197 1343 q2 133 66.5 218.5t172.5 85.5q49 0 92 -11.5t67.5 -25.5t54.5 -25.5t57 -11.5q24 0 36 13.5t19 39.5l192 -2q0 -136 -66.5 -218.5t-172.5 -82.5q-60 0 -111 18.5t-89.5 37t-70.5 18.5q-45 0 -53 -56zM453 414q0 -97 79 -97q41 0 69 21.5t28 62.5v111q-42 10 -84 10 q-47 0 -69.5 -25.5t-22.5 -82.5z" />
<glyph unicode="&#xe4;" horiz-adv-x="1132" d="M35 410q0 179 117 292t307 113q82 0 170 -18v18q0 109 -170 109q-93 0 -157.5 -13.5t-156.5 -46.5l-34 340q188 78 434 78q148 0 248.5 -31.5t161.5 -98.5t87.5 -163t26.5 -235v-754h-340l-29 90q-113 -110 -288 -110q-177 0 -277 110t-100 320zM184 1487q0 168 178 168 q177 0 177 -168q0 -166 -177 -166q-92 0 -135 39t-43 127zM453 414q0 -97 79 -97q41 0 69 21.5t28 62.5v111q-42 10 -84 10q-47 0 -69.5 -25.5t-22.5 -82.5zM596 1487q0 168 176 168q178 0 178 -168q0 -166 -178 -166q-91 0 -133.5 39t-42.5 127z" />
<glyph unicode="&#xe5;" horiz-adv-x="1132" d="M35 410q0 179 117 292t307 113q82 0 170 -18v18q0 109 -170 109q-93 0 -157.5 -13.5t-156.5 -46.5l-34 340q188 78 434 78q148 0 248.5 -31.5t161.5 -98.5t87.5 -163t26.5 -235v-754h-340l-29 90q-113 -110 -288 -110q-177 0 -277 110t-100 320zM262 1513q0 98 69 149.5 t230 51.5q156 0 229.5 -53.5t73.5 -147.5q0 -105 -70.5 -151.5t-232.5 -46.5q-156 0 -227.5 45t-71.5 153zM453 414q0 -97 79 -97q41 0 69 21.5t28 62.5v111q-42 10 -84 10q-47 0 -69.5 -25.5t-22.5 -82.5zM471 1511q0 -24 18.5 -34.5t77.5 -10.5q54 0 74.5 10t20.5 35 t-19 36.5t-76 11.5q-58 0 -77 -11.5t-19 -36.5z" />
<glyph unicode="&#xe6;" horiz-adv-x="1705" d="M35 410q0 179 117 292t307 113q82 0 170 -18v18q0 109 -170 109q-93 0 -157.5 -13.5t-156.5 -46.5l-34 340q202 78 432 78q228 0 334 -92q126 92 309 92q229 0 358 -146t129 -438q0 -84 -12 -206h-606q13 -78 69 -112t170 -34q163 0 305 51l48 -350q-174 -67 -410 -67 q-267 0 -420 139q-133 -139 -360 -139q-208 0 -315 108.5t-107 321.5zM453 414q0 -97 79 -97q41 0 69 21.5t28 62.5v111q-42 10 -84 10q-47 0 -69.5 -25.5t-22.5 -82.5zM1047 776h217q-3 87 -26.5 120.5t-78.5 33.5q-61 0 -82 -28.5t-30 -125.5z" />
<glyph unicode="&#xe7;" horiz-adv-x="929" d="M33 616q0 664 585 664q70 0 147 -11.5t126 -31.5l-23 -358q-82 20 -149 20q-132 0 -178.5 -59.5t-46.5 -225.5q0 -137 57 -206.5t158 -69.5q78 0 165 24l29 -329q-56 -33 -164 -49l-53 -359h-385l141 369q-200 43 -304.5 200.5t-104.5 421.5z" />
<glyph unicode="&#xe8;" horiz-adv-x="1144" d="M33 633q0 649 561 649q518 0 518 -584q0 -114 -12 -206h-606q13 -78 69.5 -112t169.5 -34q160 0 305 43l47 -342q-174 -67 -407 -67q-325 0 -485 166.5t-160 486.5zM205 1630h493l97 -299h-330zM487 776h215q-3 87 -26 120.5t-78 33.5q-60 0 -82 -29t-29 -125z" />
<glyph unicode="&#xe9;" horiz-adv-x="1144" d="M33 633q0 649 561 649q518 0 518 -584q0 -114 -12 -206h-606q13 -78 69.5 -112t169.5 -34q160 0 305 43l47 -342q-174 -67 -407 -67q-325 0 -485 166.5t-160 486.5zM393 1331l86 299h494l-254 -299h-326zM487 776h215q-3 87 -26 120.5t-78 33.5q-60 0 -82 -29t-29 -125z " />
<glyph unicode="&#xea;" horiz-adv-x="1144" d="M33 633q0 649 561 649q518 0 518 -584q0 -114 -12 -206h-606q13 -78 69.5 -112t169.5 -34q160 0 305 43l47 -342q-174 -67 -407 -67q-325 0 -485 166.5t-160 486.5zM221 1331l185 299h372l189 -299h-320l-47 111h-12l-47 -111h-320zM487 776h215q-3 87 -26 120.5 t-78 33.5q-60 0 -82 -29t-29 -125z" />
<glyph unicode="&#xeb;" horiz-adv-x="1144" d="M33 633q0 649 561 649q518 0 518 -584q0 -114 -12 -206h-606q13 -78 69.5 -112t169.5 -34q160 0 305 43l47 -342q-174 -67 -407 -67q-325 0 -485 166.5t-160 486.5zM193 1487q0 168 178 168q176 0 176 -168q0 -166 -176 -166q-92 0 -135 39t-43 127zM487 776h215 q-3 87 -26 120.5t-78 33.5q-60 0 -82 -29t-29 -125zM604 1487q0 168 176 168q178 0 178 -168q0 -166 -178 -166q-91 0 -133.5 39t-42.5 127z" />
<glyph unicode="&#xec;" horiz-adv-x="630" d="M-63 1630h493l96 -299h-329zM88 0v1251l455 19v-1270h-455z" />
<glyph unicode="&#xed;" horiz-adv-x="630" d="M88 0v1251l455 19v-1270h-455zM125 1331l86 299h494l-254 -299h-326z" />
<glyph unicode="&#xee;" horiz-adv-x="630" d="M-47 1331l184 299h373l188 -299h-319l-47 111h-13l-47 -111h-319zM88 0v1251l455 19v-1270h-455z" />
<glyph unicode="&#xef;" horiz-adv-x="630" d="M-57 1487q0 168 178 168q176 0 176 -168q0 -166 -176 -166q-92 0 -135 39t-43 127zM88 0v1251l455 19v-1270h-455zM354 1487q0 168 176 168q179 0 179 -168q0 -166 -179 -166q-91 0 -133.5 39t-42.5 127z" />
<glyph unicode="&#xf0;" horiz-adv-x="1218" d="M33 586q0 252 125.5 382t333.5 130q96 0 172 -27l4 4q-50 69 -101 123l-159 -82l-148 170l127 68q-56 41 -137 86l325 182q88 -53 138 -94l161 88l146 -186l-131 -68q135 -151 216 -326t81 -346q0 -379 -140 -544.5t-442 -165.5q-100 0 -181 16.5t-155.5 58.5t-125 109.5 t-80 174.5t-29.5 247zM496 561q0 -97 11.5 -148t31.5 -67t57 -16q70 0 97.5 55t27.5 205q0 88 -29 120.5t-92 32.5q-61 0 -82.5 -38t-21.5 -144z" />
<glyph unicode="&#xf1;" horiz-adv-x="1220" d="M70 0v1255l321 17l55 -88q129 102 304 102q187 0 297 -129t110 -362v-795h-444v795q0 62 -23.5 89t-71.5 27q-66 0 -104 -45v-866h-444zM260 1343q2 133 67 218.5t173 85.5q62 0 112 -18.5t88 -37t70 -18.5q24 0 36 13.5t19 39.5l193 -2q0 -136 -67 -218.5t-173 -82.5 q-60 0 -110.5 18.5t-89 37t-70.5 18.5q-45 0 -53 -56z" />
<glyph unicode="&#xf2;" horiz-adv-x="1216" d="M33 625q0 351 138.5 506t436.5 155q302 0 438 -154.5t136 -506.5t-136 -503t-438 -151q-301 0 -438 151.5t-137 502.5zM219 1630h494l96 -299h-330zM494 625q0 -134 12 -201t35 -88t69 -21t68.5 22t33.5 88.5t11 199.5q0 136 -11 202t-34 87.5t-70 21.5q-46 0 -68.5 -21 t-34 -87.5t-11.5 -202.5z" />
<glyph unicode="&#xf3;" horiz-adv-x="1216" d="M33 625q0 351 138.5 506t436.5 155q302 0 438 -154.5t136 -506.5t-136 -503t-438 -151q-301 0 -438 151.5t-137 502.5zM408 1331l86 299h493l-254 -299h-325zM494 625q0 -134 12 -201t35 -88t69 -21t68.5 22t33.5 88.5t11 199.5q0 136 -11 202t-34 87.5t-70 21.5 q-46 0 -68.5 -21t-34 -87.5t-11.5 -202.5z" />
<glyph unicode="&#xf4;" horiz-adv-x="1216" d="M33 625q0 351 138.5 506t436.5 155q302 0 438 -154.5t136 -506.5t-136 -503t-438 -151q-301 0 -438 151.5t-137 502.5zM236 1331l184 299h373l188 -299h-319l-48 111h-12l-47 -111h-319zM494 625q0 -134 12 -201t35 -88t69 -21t68.5 22t33.5 88.5t11 199.5q0 136 -11 202 t-34 87.5t-70 21.5q-46 0 -68.5 -21t-34 -87.5t-11.5 -202.5z" />
<glyph unicode="&#xf5;" horiz-adv-x="1216" d="M33 625q0 351 138.5 506t436.5 155q302 0 438 -154.5t136 -506.5t-136 -503t-438 -151q-301 0 -438 151.5t-137 502.5zM244 1343q2 133 66.5 218.5t172.5 85.5q49 0 92 -11.5t67.5 -25.5t54.5 -25.5t57 -11.5q24 0 36 13.5t19 39.5l192 -2q0 -136 -66.5 -218.5 t-172.5 -82.5q-60 0 -110.5 18.5t-89 37t-70.5 18.5q-23 0 -37 -16t-17 -40zM494 625q0 -134 12 -201t35 -88t69 -21t68.5 22t33.5 88.5t11 199.5q0 136 -11 202t-34 87.5t-70 21.5q-46 0 -68.5 -21t-34 -87.5t-11.5 -202.5z" />
<glyph unicode="&#xf6;" horiz-adv-x="1216" d="M33 625q0 351 138.5 506t436.5 155q302 0 438 -154.5t136 -506.5t-136 -503t-438 -151q-301 0 -438 151.5t-137 502.5zM225 1487q0 168 178 168q177 0 177 -168q0 -166 -177 -166q-92 0 -135 39t-43 127zM494 625q0 -134 12 -201t35 -88t69 -21t68.5 22t33.5 88.5 t11 199.5q0 136 -11 202t-34 87.5t-70 21.5q-46 0 -68.5 -21t-34 -87.5t-11.5 -202.5zM637 1487q0 168 176 168q178 0 178 -168q0 -166 -178 -166q-91 0 -133.5 39t-42.5 127z" />
<glyph unicode="&#xf7;" horiz-adv-x="1169" d="M94 481v383h981v-383h-981zM328 238q0 100 67 151t193 51t194 -51t68 -151q0 -97 -68 -148t-194 -51q-132 0 -196 44t-64 155zM328 1108q0 100 67 151.5t193 51.5t194 -51.5t68 -151.5q0 -99 -68 -150t-194 -51q-131 0 -195.5 45t-64.5 156z" />
<glyph unicode="&#xf8;" horiz-adv-x="1216" d="M33 104l80 101q-80 145 -80 420q0 351 138 506t437 155q199 0 320 -65l63 79l183 -149l-76 -96q84 -150 84 -430q0 -352 -136 -503t-438 -151q-199 0 -327 64l-64 -80zM492 651l204 234q-22 51 -88 51q-46 0 -68.5 -20t-34 -80t-13.5 -185zM514 379q13 -37 35.5 -50.5 t60.5 -13.5q44 0 66.5 21.5t35 86.5t15.5 195z" />
<glyph unicode="&#xf9;" horiz-adv-x="1212" d="M63 463v799h445v-797q0 -58 23 -84.5t77 -26.5t76.5 25.5t22.5 85.5v797h442v-799q0 -246 -134 -364.5t-409 -118.5q-543 0 -543 483zM219 1630h494l96 -299h-330z" />
<glyph unicode="&#xfa;" horiz-adv-x="1212" d="M63 463v799h445v-797q0 -58 23 -84.5t77 -26.5t76.5 25.5t22.5 85.5v797h442v-799q0 -246 -134 -364.5t-409 -118.5q-543 0 -543 483zM408 1331l86 299h493l-254 -299h-325z" />
<glyph unicode="&#xfb;" horiz-adv-x="1212" d="M63 463v799h445v-797q0 -58 23 -84.5t77 -26.5t76.5 25.5t22.5 85.5v797h442v-799q0 -246 -134 -364.5t-409 -118.5q-543 0 -543 483zM236 1331l184 299h373l188 -299h-319l-48 111h-12l-47 -111h-319z" />
<glyph unicode="&#xfc;" horiz-adv-x="1212" d="M63 463v799h445v-797q0 -58 23 -84.5t77 -26.5t76.5 25.5t22.5 85.5v797h442v-799q0 -246 -134 -364.5t-409 -118.5q-543 0 -543 483zM223 1487q0 168 178 168q177 0 177 -168q0 -166 -177 -166q-92 0 -135 39t-43 127zM635 1487q0 168 176 168q178 0 178 -168 q0 -166 -178 -166q-91 0 -133.5 39t-42.5 127z" />
<glyph unicode="&#xfd;" horiz-adv-x="1280" d="M-6 1262h502l190 -721h6l25 164l102 557h469l-370 -1209q-121 -397 -510 -397q-133 0 -226 37l33 293q61 -21 111 -21q60 0 97.5 17.5t55.5 62.5l4 12zM461 1331l86 299h493l-254 -299h-325z" />
<glyph unicode="&#xfe;" horiz-adv-x="1222" d="M76 -313v1892l442 20v-237l-4 -164l6 -4q112 88 250 88q99 0 174 -33.5t131.5 -107.5t85.5 -201.5t29 -306.5q0 -310 -122 -479.5t-331 -169.5q-126 0 -217 51v-348h-444zM520 397q37 -63 94 -63q41 0 63.5 20.5t37 89.5t14.5 199q0 114 -9 168.5t-31.5 76t-70.5 21.5 q-30 0 -57 -16t-41 -41v-455z" />
<glyph unicode="&#xff;" horiz-adv-x="1280" d="M-6 1262h502l190 -721h6l25 164l102 557h469l-370 -1209q-121 -397 -510 -397q-133 0 -226 37l33 293q61 -21 111 -21q60 0 97.5 17.5t55.5 62.5l4 12zM262 1487q0 168 178 168q176 0 176 -168q0 -166 -176 -166q-92 0 -135 39t-43 127zM674 1487q0 168 176 168 q178 0 178 -168q0 -166 -178 -166q-91 0 -133.5 39t-42.5 127z" />
<glyph unicode="&#x152;" horiz-adv-x="1951" d="M43 768q0 409 147 601t435 192q166 0 290 -84l5 2v57h964l6 -410h-536v-159h436v-371h-436v-193h561l-8 -403h-987v66l-5 2q-115 -95 -299 -95q-275 0 -424 195t-149 600zM547 768q0 -164 15.5 -244.5t50 -109.5t104.5 -29t103.5 29.5t48 109.5t14.5 244q0 165 -15 243.5 t-49 106t-106 27.5q-69 0 -102.5 -28t-48.5 -107t-15 -242z" />
<glyph unicode="&#x153;" horiz-adv-x="1830" d="M31 625q0 348 133 504.5t407 156.5q256 0 379 -123q119 119 344 119q244 0 374 -144.5t130 -439.5q0 -84 -12 -206h-606q13 -78 69 -112t170 -34q163 0 305 51l48 -350q-75 -29 -182.5 -48t-211.5 -19q-280 0 -413 124q-118 -133 -396 -133q-184 0 -300.5 64t-177 209 t-60.5 381zM492 625q0 -135 11.5 -201t34.5 -87.5t70 -21.5q46 0 68.5 22t33.5 88.5t11 199.5q0 136 -11 202t-34 87.5t-70 21.5t-69.5 -21.5t-33.5 -87t-11 -202.5zM1171 776h218q-3 87 -27 120.5t-80 33.5q-59 0 -80.5 -28.5t-30.5 -125.5z" />
<glyph unicode="&#x178;" horiz-adv-x="1374" d="M-23 1536h533l143 -465l45 -158h7l40 160l134 463h518l-459 -1087v-449h-489v449zM322 1753q0 156 174 156t174 -156q0 -154 -174 -154q-89 0 -131.5 36t-42.5 118zM725 1753q0 156 174 156q176 0 176 -156q0 -154 -176 -154q-89 0 -131.5 36t-42.5 118z" />
<glyph unicode="&#x2c6;" horiz-adv-x="813" d="M37 1331l184 299h373l188 -299h-319l-47 111h-13l-47 -111h-319z" />
<glyph unicode="&#x2dc;" horiz-adv-x="813" d="M45 1343q2 133 67 218.5t173 85.5q62 0 112 -18.5t88 -37t70 -18.5q24 0 36 13.5t19 39.5l193 -2q0 -136 -67 -218.5t-173 -82.5q-60 0 -110.5 18.5t-89 37t-70.5 18.5q-45 0 -53 -56z" />
<glyph unicode="&#x2000;" horiz-adv-x="954" />
<glyph unicode="&#x2001;" horiz-adv-x="1909" />
<glyph unicode="&#x2002;" horiz-adv-x="954" />
<glyph unicode="&#x2003;" horiz-adv-x="1909" />
<glyph unicode="&#x2004;" horiz-adv-x="636" />
<glyph unicode="&#x2005;" horiz-adv-x="477" />
<glyph unicode="&#x2006;" horiz-adv-x="318" />
<glyph unicode="&#x2007;" horiz-adv-x="318" />
<glyph unicode="&#x2008;" horiz-adv-x="238" />
<glyph unicode="&#x2009;" horiz-adv-x="381" />
<glyph unicode="&#x200a;" horiz-adv-x="106" />
<glyph unicode="&#x2010;" horiz-adv-x="710" d="M55 549v307h600v-307h-600z" />
<glyph unicode="&#x2011;" horiz-adv-x="710" d="M55 549v307h600v-307h-600z" />
<glyph unicode="&#x2012;" horiz-adv-x="710" d="M55 549v307h600v-307h-600z" />
<glyph unicode="&#x2013;" horiz-adv-x="942" d="M57 549v307h828v-307h-828z" />
<glyph unicode="&#x2014;" horiz-adv-x="1310" d="M57 549v307h1196v-307h-1196z" />
<glyph unicode="&#x2018;" horiz-adv-x="536" d="M35 1210q0 98 67 234.5t154 232.5l158 -37l-49 -237q54 -30 95.5 -85.5t41.5 -119.5q0 -102 -57 -163.5t-175 -61.5q-117 0 -176 63t-59 174z" />
<glyph unicode="&#x2019;" horiz-adv-x="536" d="M35 1360q0 101 55.5 163t173.5 62t177 -63t59 -174q0 -98 -67 -234.5t-154 -232.5l-158 37l49 237q-54 30 -94.5 85.5t-40.5 119.5z" />
<glyph unicode="&#x201a;" horiz-adv-x="536" d="M35 184q0 101 55.5 163.5t173.5 62.5t177 -63.5t59 -174.5q0 -98 -67 -234.5t-154 -232.5l-158 37l49 238q-54 30 -94.5 85t-40.5 119z" />
<glyph unicode="&#x201c;" horiz-adv-x="1040" d="M35 1210q0 98 67 234.5t154 232.5l158 -37l-49 -237q54 -30 95.5 -85.5t41.5 -119.5q0 -102 -57 -163.5t-175 -61.5q-117 0 -176 63t-59 174zM541 1210q0 98 66.5 234.5t152.5 232.5l158 -37l-50 -237q54 -30 96 -85.5t42 -119.5q0 -101 -56 -163t-174 -62t-176.5 63 t-58.5 174z" />
<glyph unicode="&#x201d;" horiz-adv-x="1040" d="M35 1354q0 101 55.5 163t173.5 62t177 -63.5t59 -174.5q0 -98 -67 -234.5t-154 -232.5l-158 37l49 238q-54 30 -94.5 85.5t-40.5 119.5zM541 1354q0 101 55.5 163t173.5 62t177 -63.5t59 -174.5q0 -98 -67.5 -234t-154.5 -233l-157 37l49 238q-54 30 -94.5 85.5 t-40.5 119.5z" />
<glyph unicode="&#x201e;" horiz-adv-x="1040" d="M35 184q0 101 55.5 163.5t173.5 62.5t177 -63.5t59 -174.5q0 -98 -67 -234.5t-154 -232.5l-158 37l49 238q-54 30 -94.5 85t-40.5 119zM541 184q0 101 55.5 163.5t173.5 62.5t177 -63.5t59 -174.5q0 -98 -67.5 -234t-154.5 -233l-157 37l49 238q-54 30 -94.5 85 t-40.5 119z" />
<glyph unicode="&#x2022;" horiz-adv-x="831" d="M45 655q0 184 91 274.5t276 90.5q372 0 372 -365q0 -185 -92.5 -275.5t-279.5 -90.5q-185 0 -276 90.5t-91 275.5z" />
<glyph unicode="&#x2026;" horiz-adv-x="1622" d="M41 195q0 223 240 223q237 0 237 -223q0 -103 -58.5 -161.5t-178.5 -58.5q-126 0 -183 51.5t-57 168.5zM575 195q0 223 240 223q238 0 238 -223q0 -103 -59 -161.5t-179 -58.5q-126 0 -183 51.5t-57 168.5zM1104 195q0 223 239 223q238 0 238 -223q0 -103 -59 -161.5 t-179 -58.5q-126 0 -182.5 51.5t-56.5 168.5z" />
<glyph unicode="&#x202f;" horiz-adv-x="381" />
<glyph unicode="&#x2039;" horiz-adv-x="749" d="M25 623v24l671 473v-319l-252 -166l252 -166v-319z" />
<glyph unicode="&#x203a;" horiz-adv-x="749" d="M51 150v319l252 166l-252 166v319l674 -473v-24z" />
<glyph unicode="&#x205f;" horiz-adv-x="477" />
<glyph unicode="&#x20ac;" d="M47 500l2 223h121v55h-121l-2 232h148q55 247 222 389.5t417 142.5q186 0 319 -51l-84 -367q-52 19 -125 19q-99 0 -158 -31.5t-90 -101.5h355l-50 -232h-344v-55h330l-47 -223h-250q32 -86 94 -121t156 -35q54 0 172 31l31 -334q-128 -61 -330 -61q-518 0 -618 520h-148 z" />
<glyph unicode="&#x2122;" horiz-adv-x="1431" d="M8 1313v219h537v-219h-131v-381h-271v381h-135zM586 932v600h327l37 -123l45 -160h6l37 142l43 141h320v-600h-234v112l4 166l-6 2l-41 -143l-41 -137h-184l-37 112l-47 160l-4 -2l2 -137v-133h-227z" />
<glyph unicode="&#xfb01;" horiz-adv-x="1392" d="M14 946v316h115v55q0 135 110 228t316 93q119 0 190 -22l-12 -283q-46 8 -78 8q-46 0 -63 -9.5t-17 -28.5v-41h725v-1262h-454v946h-271v-946h-444v946h-117zM842 1487q0 168 235 168q120 0 177 -42t57 -126q0 -166 -234 -166q-122 0 -178.5 39t-56.5 127z" />
<glyph unicode="&#xfb02;" horiz-adv-x="1327" d="M14 946v316h115v38q0 56 16 103t56.5 91.5t104 75.5t163.5 49.5t229 18.5q101 0 280.5 -19.5t272.5 -23.5v-1595h-448v1341q-79 11 -115 11q-68 0 -90.5 -17.5t-22.5 -54.5v-18h119v-316h-119v-946h-444v946h-117z" />
</font>
</defs>
</svg>
